D:\PredSim\limbproperties\Ratio80_uphill10\Ratio80_uphill10_IK_walking_1.5.mot
version=1
nRows=4
nColumns=124
inDegrees=yes
endheader
                time	         pelvis_tilt	         pelvis_list	     pelvis_rotation	           pelvis_tx	           pelvis_ty	           pelvis_tz	       hip_flexion_r	     hip_adduction_r	      hip_rotation_r	        knee_angle_r	       ankle_angle_r	    subtalar_angle_r	         mtp_angle_r	       hip_flexion_l	     hip_adduction_l	      hip_rotation_l	        knee_angle_l	       ankle_angle_l	    subtalar_angle_l	         mtp_angle_l	    lumbar_extension	      lumbar_bending	     lumbar_rotation	          arm_flex_r	           arm_add_r	           arm_rot_r	        elbow_flex_r	          arm_flex_l	           arm_add_l	           arm_rot_l	        elbow_flex_l	glut_med1_r/activation	glut_med2_r/activation	glut_med3_r/activation	glut_min1_r/activation	glut_min2_r/activation	glut_min3_r/activation	semimem_r/activation	semiten_r/activation	bifemlh_r/activation	bifemsh_r/activation	    sar_r/activation	add_long_r/activation	add_brev_r/activation	add_mag1_r/activation	add_mag2_r/activation	add_mag3_r/activation	    tfl_r/activation	   pect_r/activation	   grac_r/activation	glut_max1_r/activation	glut_max2_r/activation	glut_max3_r/activation	iliacus_r/activation	  psoas_r/activation	quad_fem_r/activation	    gem_r/activation	   peri_r/activation	rect_fem_r/activation	vas_med_r/activation	vas_int_r/activation	vas_lat_r/activation	med_gas_r/activation	lat_gas_r/activation	 soleus_r/activation	tib_post_r/activation	flex_dig_r/activation	flex_hal_r/activation	tib_ant_r/activation	per_brev_r/activation	per_long_r/activation	per_tert_r/activation	ext_dig_r/activation	ext_hal_r/activation	glut_med1_l/activation	glut_med2_l/activation	glut_med3_l/activation	glut_min1_l/activation	glut_min2_l/activation	glut_min3_l/activation	semimem_l/activation	semiten_l/activation	bifemlh_l/activation	bifemsh_l/activation	    sar_l/activation	add_long_l/activation	add_brev_l/activation	add_mag1_l/activation	add_mag2_l/activation	add_mag3_l/activation	    tfl_l/activation	   pect_l/activation	   grac_l/activation	glut_max1_l/activation	glut_max2_l/activation	glut_max3_l/activation	iliacus_l/activation	  psoas_l/activation	quad_fem_l/activation	    gem_l/activation	   peri_l/activation	rect_fem_l/activation	vas_med_l/activation	vas_int_l/activation	vas_lat_l/activation	med_gas_l/activation	lat_gas_l/activation	 soleus_l/activation	tib_post_l/activation	flex_dig_l/activation	flex_hal_l/activation	tib_ant_l/activation	per_brev_l/activation	per_long_l/activation	per_tert_l/activation	ext_dig_l/activation	ext_hal_l/activation	 ercspn_r/activation	 ercspn_l/activation	 intobl_r/activation	 intobl_l/activation	 extobl_r/activation	 extobl_l/activation	
          0.00000000	        -19.39245818	         -4.60045311	          0.83270541	          0.00000000	          0.86558748	         -0.00085784	         50.31498569	          5.44850539	         -4.10257228	        -24.06819289	         11.94615664	         -4.27869749	          0.16501155	         -1.28860426	         -3.42559744	          8.34037313	        -15.76694337	          5.88511007	         16.80327671	         19.16215892	          2.33776396	          4.93263870	         -5.29275945	          1.10486213	        -14.05396544	         11.11831330	         41.33022242	          0.55431215	        -13.49118347	         19.37985557	         42.86736110	          0.05344048	          0.05000009	          0.18428523	          0.05000002	          0.05000004	          0.05000013	          0.47759494	          0.05000029	          0.33044031	          0.05000001	          0.12188077	          0.07761302	          0.30913187	          0.40208197	          0.34565115	          0.26753614	          0.06072465	          0.05000128	          0.13056226	          0.27527370	          0.23761237	          0.26438348	          0.10837343	          0.10897150	          0.32691059	          0.06737751	          0.34350005	          0.05433998	          0.12951271	          0.13049364	          0.10528782	          0.05000000	          0.05000001	          0.05169807	          0.05377703	          0.05000014	          0.05000026	          0.52690787	          0.24269715	          0.19056601	          0.05000453	          0.64322926	          0.29624426	          0.12093570	          0.08310745	          0.08613072	          0.23272393	          0.19254169	          0.14417075	          0.05000004	          0.05000003	          0.05000002	          0.05000003	          0.06725964	          0.29029239	          0.07301751	          0.05000137	          0.05000028	          0.05000015	          0.67694786	          0.06725969	          0.05000016	          0.05000015	          0.05000008	          0.05000006	          0.31866714	          0.87517743	          0.25411457	          0.06831797	          0.09380442	          0.45142429	          0.13186915	          0.13172343	          0.12171072	          0.46734480	          0.60172735	          0.23551900	          0.39093285	          0.45399639	          0.53611931	          0.05000000	          0.23954013	          0.27209316	          0.05000000	          0.05000000	          0.05000000	          0.14009404	          0.08360162	          0.05000006	          0.05000000	          0.05000003	          0.05000000	
          0.00958961	        -19.40901860	         -4.68230355	          1.05849653	          0.01704673	          0.86526770	         -0.00036821	         49.65631459	          5.65973849	         -3.94718060	        -23.47230902	         11.64151542	         -4.24082287	          0.17361634	         -1.42680250	         -3.62955765	          8.31934117	        -16.99521063	          3.49591698	         17.46642261	         20.56049342	          2.57053967	          5.09005445	         -5.32667378	          0.55008304	        -14.09425195	         10.86806681	         41.40844519	          0.09036179	        -13.51460475	         19.38669343	         43.30910264	          0.05799134	          0.05799147	          0.16802161	          0.05799140	          0.05799135	          0.05799135	          0.46988504	          0.05799144	          0.32653646	          0.05000001	          0.10508532	          0.07801008	          0.37598252	          0.40317784	          0.34684434	          0.26421138	          0.05235666	          0.05000715	          0.19441942	          0.32882188	          0.26866785	          0.27592158	          0.09343932	          0.09395498	          0.53130319	          0.05809276	          0.49178803	          0.05000006	          0.17148590	          0.17308389	          0.14260717	          0.05000000	          0.05000000	          0.05000000	          0.05000000	          0.05000004	          0.05000002	          0.62211629	          0.27047058	          0.19130918	          0.34719983	          0.72211097	          0.33216568	          0.10427049	          0.07165508	          0.07426178	          0.20065404	          0.16600901	          0.12430370	          0.05000005	          0.05000003	          0.05000001	          0.05000003	          0.05799126	          0.34315792	          0.20207882	          0.10860540	          0.05000125	          0.05000009	          0.70704618	          0.05799140	          0.05000120	          0.05281427	          0.07800847	          0.05000026	          0.27475445	          0.89495954	          0.25566793	          0.06635730	          0.08087797	          0.38921701	          0.11369728	          0.11357164	          0.10493871	          0.40294361	          0.51880796	          0.20306394	          0.34903506	          0.39143932	          0.46224093	          0.05000000	          0.20653100	          0.24764389	          0.05000000	          0.05000000	          0.05000000	          0.13301944	          0.10987022	          0.05000001	          0.05000000	          0.05000000	          0.05000000	
          0.01917922	        -19.42209570	         -4.74981708	          1.27270556	          0.03420774	          0.86482392	          0.00011080	         48.91567495	          5.87532404	         -3.72267610	        -23.56621426	         11.08648945	         -4.19433898	          0.19495576	         -1.33716020	         -3.77429655	          8.31821085	        -18.62231442	          1.04046348	         18.03955115	         21.82171959	          2.81574570	          5.23297270	         -5.33585242	         -0.00236597	        -14.13954063	         10.66671349	         41.44196122	         -0.38680757	        -13.53900660	         19.38640667	         43.73437175	          0.05000000	          0.05000012	          0.14486788	          0.05000005	          0.05000001	          0.05000002	          0.42848338	          0.05000014	          0.28996863	          0.05000000	          0.09060433	          0.06726014	          0.32417129	          0.39454364	          0.33514059	          0.25676010	          0.05000004	          0.05799791	          0.24282361	          0.32194725	          0.25498906	          0.25270875	          0.08056317	          0.08100777	          0.71116428	          0.07804893	          0.52974719	          0.05799132	          0.16466520	          0.18619920	          0.15411300	          0.05833980	          0.05891529	          0.05907843	          0.05634423	          0.05000039	          0.06725973	          0.53638724	          0.28762942	          0.19628129	          0.29935491	          0.68142337	          0.28639250	          0.08990178	          0.06178089	          0.06725991	          0.17300346	          0.14313259	          0.10717437	          0.05000002	          0.05000001	          0.05000005	          0.05000000	          0.05000005	          0.34992046	          0.18122342	          0.30343752	          0.12171087	          0.09047839	          0.72307798	          0.05000017	          0.05000015	          0.05799765	          0.06726005	          0.10493866	          0.23689267	          0.86805440	          0.22156848	          0.06725985	          0.06973281	          0.33558202	          0.09802954	          0.09792121	          0.09047792	          0.34741706	          0.44731504	          0.17508126	          0.30093731	          0.33749826	          0.39854310	          0.05000000	          0.17807056	          0.21351800	          0.05000001	          0.05000000	          0.05000000	          0.11468906	          0.12595738	          0.05000000	          0.05799133	          0.05000003	          0.05000000	
          0.02876882	        -19.43291426	         -4.81997593	          1.47283953	          0.05133118	          0.86430942	          0.00056228	         48.11926245	          6.07054461	         -3.39327084	        -24.08206988	         10.41119965	         -4.13178072	          0.17706222	         -1.00188337	         -3.87771763	          8.33022938	        -20.65955048	         -1.43431836	         18.53613056	         22.72257700	          3.05630804	          5.38004634	         -5.32137196	         -0.51455656	        -14.19287335	         10.53449383	         41.40252696	         -0.85061811	        -13.55592562	         19.37174150	         44.12704089	          0.23709286	          0.42048696	          0.47835761	          0.10457092	          0.35516181	          0.42048689	          0.36943740	          0.16885081	          0.25001035	          0.07800985	          0.07811885	          0.05799155	          0.27949975	          0.34017462	          0.28895746	          0.26502172	          0.05000001	          0.05000576	          0.20936198	          0.48958932	          0.37474510	          0.30587567	          0.06946138	          0.06984471	          0.82380622	          0.36163498	          0.71313927	          0.05000000	          0.18143926	          0.23955612	          0.19979254	          0.05030044	          0.05079663	          0.05093729	          0.05799133	          0.05010153	          0.05799121	          0.71718982	          0.24799343	          0.16923328	          0.57259677	          0.80566386	          0.56468946	          0.10493865	          0.05326736	          0.05799134	          0.22300362	          0.12340861	          0.09240551	          0.06925795	          0.05799102	          0.05000021	          0.05000005	          0.05000047	          0.35020316	          0.24083661	          0.26162315	          0.10493885	          0.07801027	          0.77644660	          0.05799157	          0.05000025	          0.05000548	          0.05799147	          0.09047787	          0.24369270	          0.83657067	          0.19103584	          0.05799130	          0.06012347	          0.28933805	          0.08452084	          0.08442744	          0.07800985	          0.29954219	          0.38567401	          0.15095466	          0.25946747	          0.29099027	          0.34362296	          0.05000000	          0.15353204	          0.18409473	          0.05000000	          0.05000000	          0.05000001	          0.09888465	          0.14895838	          0.08424069	          0.05000000	          0.05000000	          0.05799159	
